<mxfile host="app.diagrams.net" modified="2023-06-24T14:36:40.330Z" agent="Mozilla/5.0 (Windows NT 10.0; Win64; x64) AppleWebKit/537.36 (KHTML, like Gecko) Chrome/114.0.0.0 Safari/537.36" version="21.5.0" etag="Bl_a73FLddl9xRxa8DpN" type="github">
  <diagram name="Page-1" id="xLP4ziFvan-jjUcVaG1j">
    <mxGraphModel>
      <root>
        <mxCell id="0" />
        <mxCell id="1" parent="0" />
      </root>
    </mxGraphModel>
  </diagram>
</mxfile>
